<?xml version="1.0" encoding="UTF-8"?>
<svg id="Camada_1" data-name="Camada 1" xmlns="http://www.w3.org/2000/svg" viewBox="0 0 284.23 26">
  <defs>
    <style>
      .cls-1 {
        fill: #a6a5a5;
      }

      .cls-2 {
        fill: #c11c4e;
      }
    </style>
  </defs>
  <path class="cls-2" d="m138.03.17h-6.89v19.28c2.48,2.06,5.04,3.91,7.64,5.62l.1.08.37.37h9.01v-5.56h-10.24V.17Z"/>
  <path class="cls-2" d="m166.37,8.1c-.21.67-.42,1.58-.67,2.71-.25,1.12-.48,2.31-.73,3.6-.19.94-.33,1.85-.5,2.75-.17-.9-.31-1.81-.5-2.75-.25-1.29-.5-2.48-.75-3.6-.25-1.12-.46-2.04-.67-2.71l-2.27-7.93h-10.87v25.35h6.95v-9.8c0-.58-.02-1.35-.04-2.31-.04-.96-.06-2-.1-3.16-.02-1.14-.06-2.29-.08-3.43,0-.25-.02-.48,0-.71.06.27.12.56.19.85.27,1.17.54,2.31.81,3.41.29,1.1.56,2.12.81,3.04.27.92.48,1.69.67,2.31l3,9.8h5.7l2.96-9.8c.17-.62.4-1.39.65-2.31.25-.92.5-1.94.77-3.04.27-1.1.54-2.25.81-3.41.08-.44.19-.85.27-1.27,0,.35,0,.73-.02,1.12-.02,1.14-.04,2.29-.08,3.43-.04,1.17-.06,2.21-.1,3.16-.02.96-.04,1.73-.04,2.31v9.8h6.95V.17h-10.87l-2.25,7.93Z"/>
  <path class="cls-2" d="m188.68.17l-8.22,25.35h7.7l1.39-4.87h7.81l1.46,4.87h7.79L198.07.17h-9.39Zm2.33,15.34c.58-2.06,1.14-4.25,1.6-6.47.23-1.08.46-2.16.69-3.25.25,1.08.52,2.16.77,3.25.54,2.23,1.14,4.41,1.75,6.47h-4.81Z"/>
  <path class="cls-2" d="m224.07,9.46c0,.81.02,1.79.1,2.98.06,1.17.15,2.35.23,3.56.02.37.04.73.06,1.06-.19-.54-.37-1.04-.56-1.5-.44-1.04-.87-1.98-1.31-2.85-.46-.85-.96-1.73-1.48-2.58L215.08.17h-7.49v25.35h7.1v-9.26c0-.69-.04-1.54-.08-2.56-.06-1-.12-2.1-.21-3.27-.04-.52-.08-1.04-.12-1.56.25.54.48,1.06.69,1.54.44,1.02.92,1.98,1.39,2.89.48.92,1.04,1.89,1.69,2.96l5.62,9.26h7.49V.17h-7.08v9.28Z"/>
  <path class="cls-2" d="m240.35.17l-8.22,25.35h7.7l1.39-4.87h7.79l1.46,4.87h7.81L249.73.17h-9.39Zm2.33,15.34c.58-2.06,1.12-4.25,1.6-6.47.23-1.08.46-2.19.69-3.27.25,1.08.5,2.19.77,3.27.54,2.23,1.12,4.41,1.75,6.47h-4.81Z"/>
  <path class="cls-2" d="m275.3,12.37l7.95-12.2h-7.79l-2.06,3.29c-.5.81-.9,1.58-1.23,2.31-.27.6-.54,1.17-.77,1.73-.23-.56-.48-1.12-.75-1.73-.31-.73-.73-1.5-1.23-2.31l-2.02-3.29h-7.99l8.12,12.39-9.14,12.97h8.01l2.89-4.37c.48-.71.85-1.31,1.1-1.81.25-.48.48-.94.67-1.33.08-.15.15-.29.25-.44.08.15.15.27.21.42.19.4.42.85.67,1.35.25.48.6,1.1,1.06,1.81l2.75,4.37h8.22l-8.93-13.16Z"/>
  <polygon class="cls-1" points="0 25.69 18.21 25.69 18.21 20.15 6.88 20.15 6.88 15.59 17.32 15.59 17.32 10.17 6.88 10.17 6.88 5.89 18.28 5.89 18.28 .34 0 .34 0 25.69"/>
  <path class="cls-1" d="m27.29.34l-8.22,25.35h7.69l1.39-4.87h7.81l1.46,4.87h7.79L36.69.34h-9.39Zm7.13,15.35h-4.81c.59-2.08,1.13-4.24,1.6-6.47.24-1.11.47-2.21.7-3.31.26,1.1.5,2.2.76,3.31.54,2.24,1.12,4.39,1.74,6.47Z"/>
  <path class="cls-1" d="m64.93,13.33c-.64-.65-1.46-1.22-2.47-1.71s-2.2-.88-3.6-1.17l-2.08-.44c-.79-.17-1.44-.37-1.95-.59s-.87-.48-1.11-.78c-.23-.3-.35-.65-.35-1.05,0-.37.11-.71.32-1s.55-.52,1-.69,1.03-.25,1.74-.25c1.11,0,1.94.23,2.49.69.55.46.85,1.1.91,1.93h6.6c-.01-1.66-.42-3.11-1.23-4.35s-1.96-2.21-3.45-2.89-3.26-1.03-5.32-1.03-3.78.34-5.32,1.01-2.74,1.62-3.62,2.82c-.87,1.21-1.31,2.62-1.31,4.23,0,1.99.64,3.55,1.93,4.71,1.29,1.15,3.05,1.97,5.28,2.44l2.55.54c.94.19,1.69.41,2.24.65.56.24.96.5,1.2.79s.37.63.37,1.01c0,.42-.13.79-.38,1.11-.25.32-.63.58-1.13.76-.5.18-1.12.27-1.86.27-.88,0-1.64-.14-2.27-.41-.63-.27-1.12-.67-1.46-1.21-.35-.53-.54-1.19-.59-1.96h-6.53c.01,2.12.47,3.86,1.38,5.22.91,1.36,2.18,2.37,3.82,3.02s3.56.98,5.76.98,3.98-.3,5.52-.9c1.53-.6,2.71-1.48,3.53-2.64.82-1.16,1.23-2.58,1.23-4.25,0-.96-.15-1.85-.45-2.67-.3-.82-.77-1.55-1.41-2.2Z"/>
  <path class="cls-1" d="m84.54.34l-3.42,7.66c-.32.69-.6,1.4-.83,2.13-.08.25-.17.54-.25.82-.09-.28-.18-.56-.27-.82-.26-.73-.56-1.44-.88-2.13l-3.66-7.66h-8.08l9.44,16.54v8.81h6.84v-8.81L92.59.34h-8.05Z"/>
  <path class="cls-2" d="m126.51,18.16c-3.89-3.39-7.35-6.97-10.3-10.64-2.02-2.46-3.81-4.95-5.37-7.43l-.08-.08-.1.08c-1.56,2.48-3.35,4.98-5.37,7.43-2.96,3.66-6.41,7.24-10.3,10.64-3,2.6-6.08,4.95-9.18,7.02l-.46.52h15.2l2.75-3.5h15.42l2.87,3.5h14.86l-.02-.02c-3.35-2.19-6.68-4.7-9.91-7.51Zm-20.3.35c1.14-1.48,2.16-3.04,3.14-4.64.46-.79.92-1.6,1.37-2.39.46.79.98,1.6,1.5,2.39,1.02,1.6,2.23,3.16,3.43,4.64h-9.45Z"/>
</svg>